HIERARCHY
ROOT Hips
{
	OFFSET 0.00000 0.00000 0.00000
	CHANNELS 6 Xposition Yposition Zposition Zrotation Yrotation Xrotation 
	JOINT LHipJoint
	{
		OFFSET 0 0 0
		CHANNELS 3 Zrotation Yrotation Xrotation
		JOINT LeftUpLeg
		{
			OFFSET 1.57358 -1.76629 0.73362
			CHANNELS 3 Zrotation Yrotation Xrotation
			JOINT LeftLeg
			{
				OFFSET 2.40600 -6.61045 0.00000
				CHANNELS 3 Zrotation Yrotation Xrotation
				JOINT LeftFoot
				{
					OFFSET 2.66168 -7.31291 0.00000
					CHANNELS 3 Zrotation Yrotation Xrotation
					JOINT LeftToeBase
					{
						OFFSET 0.20870 -0.57341 2.12506
						CHANNELS 3 Zrotation Yrotation Xrotation
						End Site
						{
							OFFSET 0.00000 -0.00000 1.10557
						}
					}
				}
			}
		}
	}
	JOINT RHipJoint
	{
		OFFSET 0 0 0
		CHANNELS 3 Zrotation Yrotation Xrotation
		JOINT RightUpLeg
		{
			OFFSET -1.49299 -1.76629 0.73362
			CHANNELS 3 Zrotation Yrotation Xrotation
			JOINT RightLeg
			{
				OFFSET -2.43663 -6.69460 0.00000
				CHANNELS 3 Zrotation Yrotation Xrotation
				JOINT RightFoot
				{
					OFFSET -2.62959 -7.22474 0.00000
					CHANNELS 3 Zrotation Yrotation Xrotation
					JOINT RightToeBase
					{
						OFFSET -0.25784 -0.70841 2.21862
						CHANNELS 3 Zrotation Yrotation Xrotation
						End Site
						{
							OFFSET -0.00000 -0.00000 1.16452
						}
					}
				}
			}
		}
	}
	JOINT LowerBack
	{
		OFFSET 0 0 0
		CHANNELS 3 Zrotation Yrotation Xrotation
		JOINT Spine
		{
			OFFSET -0.00034 2.12399 -0.25450
			CHANNELS 3 Zrotation Yrotation Xrotation
			JOINT Spine1
			{
				OFFSET 0.05594 2.14379 -0.03318
				CHANNELS 3 Zrotation Yrotation Xrotation
				JOINT Neck
				{
					OFFSET 0 0 0
					CHANNELS 3 Zrotation Yrotation Xrotation
					JOINT Neck1
					{
						OFFSET -0.09835 1.62725 0.24211
						CHANNELS 3 Zrotation Yrotation Xrotation
						JOINT Head
						{
							OFFSET 0.10849 1.66041 -0.22648
							CHANNELS 3 Zrotation Yrotation Xrotation
							End Site
							{
								OFFSET 0.04385 1.68267 -0.10541
							}
						}
					}
				}
				JOINT LeftShoulder
				{
					OFFSET 0 0 0
					CHANNELS 3 Zrotation Yrotation Xrotation
					JOINT LeftArm
					{
						OFFSET 3.29108 0.79398 -0.68179
						CHANNELS 3 Zrotation Yrotation Xrotation
						JOINT LeftForeArm
						{
							OFFSET 5.15310 -0.00000 -0.00000
							CHANNELS 3 Zrotation Yrotation Xrotation
							JOINT LeftHand
							{
								OFFSET 3.75138 -0.00000 -0.00000
								CHANNELS 3 Zrotation Yrotation Xrotation
								JOINT LeftFingerBase
								{
									OFFSET 0 0 0
									CHANNELS 3 Zrotation Yrotation Xrotation
									JOINT LeftHandIndex1
									{
										OFFSET 0.52917 -0.00000 0.00000
										CHANNELS 3 Zrotation Yrotation Xrotation
										End Site
										{
											OFFSET 0.42663 -0.00000 0.00000
										}
									}
								}
								JOINT LThumb
								{
									OFFSET 0 0 0
									CHANNELS 3 Zrotation Yrotation Xrotation
									End Site
									{
										OFFSET 0.43315 -0.00000 0.43315
									}
								}
							}
						}
					}
				}
				JOINT RightShoulder
				{
					OFFSET 0 0 0
					CHANNELS 3 Zrotation Yrotation Xrotation
					JOINT RightArm
					{
						OFFSET -3.07414 1.06285 -0.44338
						CHANNELS 3 Zrotation Yrotation Xrotation
						JOINT RightForeArm
						{
							OFFSET -5.29613 -0.00000 0.00000
							CHANNELS 3 Zrotation Yrotation Xrotation
							JOINT RightHand
							{
								OFFSET -3.76144 -0.00000 -0.00000
								CHANNELS 3 Zrotation Yrotation Xrotation
								JOINT RightFingerBase
								{
									OFFSET 0 0 0
									CHANNELS 3 Zrotation Yrotation Xrotation
									JOINT RightHandIndex1
									{
										OFFSET -0.74732 -0.00000 0.00000
										CHANNELS 3 Zrotation Yrotation Xrotation
										End Site
										{
											OFFSET -0.60251 -0.00000 0.00000
										}
									}
								}
								JOINT RThumb
								{
									OFFSET 0 0 0
									CHANNELS 3 Zrotation Yrotation Xrotation
									End Site
									{
										OFFSET -0.61171 -0.00000 0.61171
									}
								}
							}
						}
					}
				}
			}
		}
	}
}
MOTION
Frames: 12
Frame Time: .0083333
-10.5879 16.7575 -30.4346 0 0 0 0 0 0 -21 0 0 0 0 0 0 0 0 0 0 0 0 0 0 21 0 0 0 0 0 0 0 0 0 0 0 0 0 0 0 0 0 0 0 0 0 0 -16 0 0 21 0 0 11 0 0 0 -8 0 0 0 0 0 0 0 0 0 0 0 0 0 0 0 0 0 0 0 0 8 0 0 0 0 0 0 0 0 0 0 0 0 0 0 0 0 0
-10.5879 16.7575 -30.4346 0.8417 -5.5635 1.4770 0.0000 0.0000 0.0000 -15.2487 -4.1236 -19.6592 17.6994 19.8726 83.2597 -0.0571 -4.5890 3.5519 0.4371 -4.2423 -11.7593 0.0000 0.0000 0.0000 28.3427 5.0751 -14.8851 -5.5184 -13.9448 43.0167 -1.3526 -5.6714 -24.6739 -0.0010 0.2070 -0.5688 -5.5409 -1.7508 10.6431 4.5653 -2.7509 -1.3207 8.4971 -1.0378 -6.9096 -12.9429 0.3094 -12.9463 6.3759 1.9699 11.6478 4.2899 0.8596 5.4449 0.0000 -0.0000 0.0000 -92.4241 13.9248 35.6435 113.3685 -57.8325 -80.0905 -0.0000 0.0000 -20.6288 15.2211 13.0315 3.5108 -7.1250 0.0000 -0.0000 -10.9934 43.1965 0.4957 0.0000 -0.0000 0.0000 79.1010 -9.0667 55.7506 -133.4736 51.4947 -96.5727 0.0000 -0.0000 -6.5302 -14.4596 20.5919 -5.1822 7.1250 -0.0000 -0.0000 8.9803 -8.9820 7.5642
-10.5911 16.7487 -30.0620 0.3889 -5.2810 1.5560 0.0000 0.0000 0.0000 -14.2216 -4.4837 -22.0168 17.8804 19.8919 83.7920 -0.0696 -4.7348 0.9148 0.9151 -6.0951 -17.0606 0.0000 0.0000 0.0000 28.9614 4.4473 -13.1909 -5.3452 -13.7623 42.2935 -1.3470 -6.3945 -25.0746 -0.0332 1.1755 -3.2318 -4.7988 -1.3816 10.6150 4.3488 -2.1712 -1.2056 7.7324 -0.7890 -6.9081 -12.6012 0.1338 -14.2538 7.0056 1.7266 13.0727 4.4730 0.7839 6.1319 0.0000 0.0000 0.0000 -91.5933 14.3605 36.8124 113.8629 -57.7351 -80.5087 -0.0000 0.0000 -20.1026 15.5217 13.2378 3.6391 -7.1250 0.0000 -0.0000 -10.7754 43.4372 0.4208 0.0000 0.0000 0.0000 79.7032 -8.3781 55.3658 -134.6550 50.9364 -97.4937 0.0000 -0.0000 -6.8959 -14.3621 20.9851 -5.2393 7.1250 -0.0000 -0.0000 9.0571 -8.5967 7.7009
-10.5865 16.7382 -29.6939 -0.1056 -5.2186 1.7118 0.0000 0.0000 0.0000 -13.3099 -4.7235 -24.4587 17.9529 19.8992 84.0050 -0.0686 -4.9800 -0.1080 0.8326 -5.8210 -16.2659 0.0000 0.0000 0.0000 29.5339 4.0952 -11.3698 -5.1564 -13.5577 41.4939 -1.4428 -6.2530 -25.7108 -0.0130 0.7371 -2.0257 -2.0719 0.5576 10.0306 2.2163 0.6197 0.8021 3.3986 0.3707 -4.8392 -8.8797 -2.5246 -21.1286 6.9968 -2.1097 14.0123 3.5295 -0.7765 7.9607 -0.0000 -0.0000 0.0000 -85.8519 9.6744 42.8713 113.0416 -57.8957 -79.8136 -0.0000 0.0000 -21.0758 14.9525 13.0843 3.4598 -7.1250 0.0000 -0.0000 -11.2451 43.2215 0.5003 -0.0000 -0.0000 0.0000 84.5655 -4.3803 49.7214 -135.5715 50.4854 -98.2030 0.0000 -0.0000 -7.1024 -14.0246 20.0761 -4.9007 7.1250 -0.0000 -0.0000 9.2415 -9.5509 7.6833
-10.5869 16.7556 -29.3255 -0.6950 -5.3825 1.9280 0.0000 0.0000 0.0000 -12.3907 -4.7804 -26.8185 17.9035 19.8943 83.8598 -0.0706 -5.3110 -0.6801 0.7613 -5.5721 -15.5478 0.0000 0.0000 0.0000 30.2490 3.9517 -9.4881 -4.9389 -13.3146 40.5579 -1.4112 -6.6210 -25.7041 -0.0194 0.8986 -2.4698 -1.8374 0.5398 10.1013 2.6870 0.6549 0.1801 3.7599 0.4075 -5.5387 -9.7208 -2.2947 -18.8822 7.2193 -1.7807 13.3142 3.7654 -0.6749 7.3324 -0.0000 -0.0000 0.0000 -86.6051 11.7829 42.2121 114.0627 -57.6950 -80.6776 -0.0000 0.0000 -21.6056 14.1039 12.9851 3.2313 -7.1250 0.0000 -0.0000 -11.9733 43.0330 0.5903 -0.0000 -0.0000 0.0000 83.4822 -4.7829 51.2429 -136.8711 49.8182 -99.2008 0.0000 -0.0000 -7.7931 -13.3405 19.3068 -4.4830 7.1250 -0.0000 -0.0000 9.6617 -10.3977 7.8751
-10.5944 16.7688 -28.9822 -1.6408 -5.7754 2.1979 0.0000 0.0000 0.0000 -10.9671 -4.6134 -29.4653 17.7551 19.8787 83.4235 -0.0841 -5.8133 -0.7796 0.6716 -5.2407 -14.5964 0.0000 0.0000 0.0000 31.4270 4.0910 -7.5971 -4.7029 -13.0412 39.5227 -1.2673 -7.3414 -25.0809 -0.0819 1.8456 -5.0792 -2.2717 -0.0566 10.6202 4.1319 -0.0828 -1.0613 5.6956 0.1367 -7.0950 -12.0675 -1.2023 -15.0020 7.6233 -0.1906 12.5405 4.4173 -0.0452 6.2857 -0.0000 0.0000 0.0000 -89.6450 15.5934 39.1459 115.2883 -57.4401 -81.7121 -0.0000 0.0000 -21.1187 13.0016 12.7017 2.9063 -7.1250 0.0000 -0.0000 -12.8741 42.6369 0.7644 -0.0000 0.0000 0.0000 80.6220 -6.1393 55.0184 -138.1256 49.1420 -100.1545 0.0000 -0.0000 -8.8617 -13.4995 20.5416 -4.8151 7.1250 -0.0000 -0.0000 9.5916 -9.1405 8.0630
-10.5932 16.8022 -28.6151 -2.0524 -6.0220 2.4584 0.0000 0.0000 0.0000 -10.4136 -4.7187 -31.6917 17.3976 19.8368 82.3712 -0.0885 -5.9456 -0.7679 0.4527 -4.3163 -11.9683 0.0000 0.0000 0.0000 31.8697 3.7821 -5.7474 -4.4354 -12.7182 38.3227 -1.1227 -7.6909 -24.1805 -0.2659 3.3173 -9.1635 -2.5580 -0.2304 10.6397 4.7811 -0.2928 -1.6470 6.6210 0.0903 -7.7123 -12.8812 -0.6253 -13.5025 7.7006 0.5632 12.4420 4.6264 0.2657 5.9200 0.0000 0.0000 0.0000 -91.2002 17.7450 37.3619 115.9589 -57.2940 -82.2768 -0.0000 0.0000 -21.1108 11.5150 12.4125 2.5074 -7.1250 0.0000 -0.0000 -14.1009 42.2029 0.9948 0.0000 0.0000 0.0000 79.3301 -6.8219 57.0725 -139.2253 48.5222 -100.9824 0.0000 -0.0000 -9.8261 -14.1489 23.1631 -5.6629 7.1250 -0.0000 -0.0000 9.2849 -6.4313 8.2989
-10.5831 16.8747 -28.1896 -1.6910 -5.8593 2.5169 0.0000 0.0000 0.0000 -11.1035 -5.2661 -32.8045 16.7983 19.7524 80.6016 -0.0713 -5.7574 -1.3960 0.3400 -3.7469 -10.3657 0.0000 0.0000 0.0000 31.2596 2.9267 -3.7905 -4.1622 -12.3732 37.0654 -0.9463 -7.5196 -22.5713 -0.2781 3.3917 -9.3712 -0.6192 1.4859 9.8189 2.5286 2.0476 0.0804 2.6977 1.0598 -5.5445 -9.8762 -2.9224 -20.2078 8.1701 -2.6724 14.0937 4.0223 -0.9981 7.9129 -0.0000 -0.0000 0.0000 -85.8442 13.9197 42.6787 115.1345 -57.4729 -81.5825 -0.0000 0.0000 -22.3375 11.2263 12.3233 2.4257 -7.1250 0.0000 -0.0000 -14.3288 42.0871 1.0535 -0.0000 -0.0000 0.0000 83.5792 -3.6891 52.0200 -139.8770 48.1426 -101.4692 0.0000 -0.0000 -9.9441 -14.0953 22.9399 -5.5897 7.1250 -0.0000 -0.0000 9.3078 -6.6621 8.2778
-10.5684 16.9564 -27.7576 -1.5498 -5.6076 2.5482 0.0000 0.0000 0.0000 -11.6532 -5.9174 -33.7269 16.0652 19.6247 78.4260 -0.0496 -5.4389 -2.0026 0.2919 -3.4743 -9.6020 0.0000 0.0000 0.0000 30.8238 2.2280 -1.8325 -3.9007 -12.0270 35.8276 -0.8831 -6.7013 -21.4022 -0.3767 3.9418 -10.9129 -0.2965 1.7290 9.4008 2.2024 2.3835 0.1912 2.1359 1.2102 -5.1827 -9.1333 -3.5608 -20.1206 7.3833 -3.5620 12.8831 3.5006 -1.4532 7.5530 0.0000 0.0000 0.0000 -85.3471 14.6992 43.1879 115.6604 -57.3596 -82.0255 -0.0000 0.0000 -22.6940 11.1453 11.9706 2.3399 -7.1250 0.0000 -0.0000 -14.3064 41.7324 1.1800 0.0000 0.0000 0.0000 83.6915 -2.6711 52.2123 -140.9976 47.4676 -102.2994 0.0000 -0.0000 -11.4131 -12.6488 20.5816 -4.5109 7.1250 -0.0000 -0.0000 10.1354 -9.1923 8.5242
-10.5502 17.0330 -27.3403 -1.8647 -5.4683 2.6930 0.0000 0.0000 0.0000 -11.7029 -6.5060 -34.8021 15.2600 19.4526 76.0185 -0.0295 -5.1516 -2.5470 0.3012 -3.5287 -9.7545 0.0000 0.0000 0.0000 30.8677 1.7955 -0.0119 -3.6565 -11.6887 34.6393 -0.7716 -6.0087 -19.8399 -0.4951 4.5114 -12.5199 0.4352 1.8718 9.2061 2.0467 2.6437 0.0793 1.5299 1.3187 -5.1602 -9.0117 -3.8230 -20.2897 7.4122 -3.9490 13.0016 3.4413 -1.6255 7.6529 0.0000 -0.0000 0.0000 -85.1005 15.7630 43.1888 116.1129 -57.2598 -82.4064 -0.0000 0.0000 -23.1503 10.3023 12.3320 2.2232 -7.1250 0.0000 -0.0000 -15.1343 42.0064 1.1467 0.0000 -0.0000 0.0000 83.7927 -1.9871 52.4770 -142.4992 46.5175 -103.3976 0.0000 -0.0000 -14.8339 -9.3722 18.2799 -2.9635 7.1250 -0.0000 -0.0000 12.2253 -11.7827 9.7002
-10.5356 17.1207 -26.9216 -2.0011 -5.3911 2.8023 0.0000 0.0000 0.0000 -12.0155 -7.0255 -35.5977 14.3626 19.2203 73.3087 0.0099 -4.8310 -3.7166 0.4277 -4.1972 -11.6322 0.0000 0.0000 0.0000 30.6974 1.3737 1.6951 -3.4401 -11.3755 33.5569 -0.5567 -5.6512 -17.2864 -0.5048 4.5544 -12.6419 0.7100 1.1672 7.6331 2.4212 1.7361 -0.4655 1.9133 0.8718 -4.8229 -10.4924 -2.7818 -15.0147 8.0602 -2.6831 10.9385 4.0373 -1.1239 6.0218 -0.0000 0.0000 0.0000 -86.9175 19.0907 40.4549 116.9242 -57.0753 -83.0881 -0.0000 0.0000 -23.1915 10.0393 12.8980 2.2630 -7.1250 0.0000 -0.0000 -15.5208 42.5329 0.9702 -0.0000 0.0000 0.0000 82.4452 -2.9720 55.5068 -141.3626 47.2416 -102.5679 0.0000 -0.0000 -11.7608 -13.1710 25.5144 -5.7559 7.1250 -0.0000 -0.0000 10.0059 -4.2048 9.3924
-10.5183 17.2065 -26.5067 -1.9894 -5.0908 2.7422 0.0000 0.0000 0.0000 -12.5505 -7.7888 -35.9618 13.3822 18.9158 70.3086 0.0680 -4.1213 -5.0972 0.6167 -5.0260 -13.9827 0.0000 0.0000 0.0000 30.3160 0.7546 3.2814 -3.2588 -11.1027 32.6270 -0.3538 -5.2308 -14.3818 -0.4995 4.5311 -12.5757 0.9498 0.6618 6.7780 2.5481 1.0751 -0.6912 1.9947 0.5411 -4.5536 -11.2664 -2.0677 -12.3746 8.4308 -1.8474 9.8532 4.3493 -0.7649 5.1695 0.0000 0.0000 0.0000 -88.2365 21.2768 38.3573 117.2401 -57.0016 -83.3532 -0.0000 0.0000 -22.8923 9.9289 13.2774 2.3022 -7.1250 0.0000 -0.0000 -15.7265 42.8912 0.8408 0.0000 0.0000 0.0000 81.5148 -3.4418 57.9865 -141.8093 46.9607 -102.8952 0.0000 -0.0000 -10.4925 -14.3937 24.3958 -6.0508 7.1250 -0.0000 -0.0000 9.1984 -5.1620 8.4454
